<svg version="1.1" id="Layer_1" xmlns="http://www.w3.org/2000/svg" xmlns:xlink="http://www.w3.org/1999/xlink" x="0px" y="0px"
	 width="100%" viewBox="0 0 752 736" enable-background="new 0 0 752 736" xml:space="preserve">
<path fill="#2E2E2E" opacity="1.000000" stroke="none" 
	d="
M753.000000,472.533142 
	C748.113403,484.604065 740.610779,492.967651 727.234131,494.523010 
	C714.297302,496.027283 704.489502,491.175995 697.589355,480.356842 
	C695.948242,477.783661 694.392029,475.986511 691.019958,475.997925 
	C665.869202,476.082977 640.717957,476.044128 614.952209,476.044128 
	C614.952209,483.880585 614.753418,491.654266 615.029785,499.411011 
	C615.185425,503.780243 613.648010,506.272003 609.764404,508.481201 
	C571.983154,529.973938 534.353638,551.733398 496.588257,573.254211 
	C492.977295,575.311890 491.980591,577.820007 491.999542,581.705505 
	C492.123932,607.203430 492.142151,632.702698 491.983704,658.200256 
	C491.958374,662.281128 493.065338,664.778259 496.674286,667.095703 
	C509.939545,675.613831 514.456116,693.164368 507.447723,707.206055 
	C500.870148,720.384705 484.316467,726.685547 469.672241,721.096680 
	C458.457886,716.816772 451.971039,708.078186 450.230469,696.420288 
	C448.420258,684.295776 453.327637,674.445862 463.205048,667.474304 
	C466.805756,664.932800 468.081116,662.340881 468.042236,658.074890 
	C467.853912,637.411194 467.958710,616.744751 467.959656,596.079285 
	C467.959717,594.276306 467.959656,592.473389 467.959656,590.728455 
	C465.382996,590.138550 463.990753,591.612061 462.486633,592.467041 
	C440.189789,605.141235 417.955078,617.924988 395.628967,630.547180 
	C393.051056,632.004517 392.272797,633.776733 392.282898,636.554626 
	C392.359314,657.553162 392.396942,678.552490 392.262756,699.550415 
	C392.241516,702.869263 393.954254,705.170044 395.407745,707.756287 
	C399.829437,715.623718 398.605164,724.432922 392.279175,730.677002 
	C386.480103,736.400940 378.542389,737.395264 371.154785,733.323120 
	C363.154510,728.913269 359.902924,716.502197 365.023651,707.841187 
	C367.442841,703.749512 368.210449,699.791016 368.192383,695.138550 
	C368.120605,676.646057 368.281036,658.148682 368.698425,639.660889 
	C368.809204,634.752747 366.877350,632.316040 362.729980,629.981812 
	C343.718231,619.281921 324.936829,608.173096 306.049835,597.250732 
	C300.157990,593.843567 294.194458,590.560425 288.203796,587.186707 
	C286.685669,588.899597 287.335297,590.808105 287.331146,592.520935 
	C287.277924,614.352905 287.403107,636.185974 287.202576,658.016235 
	C287.164520,662.158752 288.408051,664.556946 291.945190,666.861694 
	C306.723114,676.491150 310.449005,694.924683 300.894257,709.307007 
	C291.424072,723.562073 272.456390,727.599365 258.692596,718.289856 
	C239.836365,705.535828 240.082703,679.226990 259.359467,666.826294 
	C262.615906,664.731445 263.746338,662.535828 263.726196,658.776794 
	C263.583221,632.112427 263.578735,605.446533 263.728699,578.782166 
	C263.749939,575.013611 262.730988,572.682739 259.356110,570.753052 
	C224.219467,550.663208 189.235489,530.305054 154.015640,510.363129 
	C148.013046,506.964355 144.562393,503.387390 145.521805,496.055542 
	C146.186432,490.976440 145.527634,485.735901 145.688049,480.574615 
	C145.786331,477.412933 144.690918,476.064453 141.396835,476.068787 
	C115.898773,476.102234 90.400444,476.060333 64.902596,475.949371 
	C61.871082,475.936157 60.589592,477.672028 59.207008,479.930786 
	C51.633938,492.303223 37.832970,497.737732 24.314520,493.816925 
	C11.975795,490.238251 3.167910,478.692169 2.804013,465.619171 
	C2.425516,452.021698 10.626424,440.126984 23.431103,435.701263 
	C35.585724,431.500275 49.846149,435.530396 57.199730,446.423920 
	C60.696144,451.603485 64.427124,452.955750 70.274910,452.871277 
	C93.269081,452.538910 116.271614,452.565430 139.268051,452.779602 
	C144.327713,452.826691 145.779877,451.286469 145.753799,446.240479 
	C145.559143,408.576935 145.584351,370.911713 145.733047,333.247742 
	C145.750778,328.754181 144.536179,327.102844 139.839401,327.139374 
	C115.175598,327.331116 90.509377,327.278992 65.844513,327.180908 
	C62.636986,327.168152 60.831524,328.223572 59.114586,331.045197 
	C52.566814,341.805756 42.694889,347.132782 30.174335,346.015167 
	C17.755680,344.906647 9.269225,337.642609 4.826121,326.195862 
	C0.468423,314.969177 2.559777,304.571228 10.743271,295.614655 
	C24.274405,280.805298 46.665882,282.329468 58.571835,299.095856 
	C60.993572,302.506226 63.419685,303.777222 67.534416,303.746155 
	C91.531670,303.564972 115.532097,303.543488 139.528763,303.762573 
	C144.372513,303.806793 145.833298,302.291840 145.743713,297.503357 
	C145.475677,283.175873 145.743820,268.839081 145.583862,254.508362 
	C145.545654,251.085617 146.627365,249.052368 149.668777,247.363693 
	C185.928574,227.231644 222.084503,206.912155 258.388245,186.860153 
	C262.264648,184.719086 263.786987,182.474930 263.756897,177.987045 
	C263.552521,147.490143 263.576202,116.990829 263.737305,86.493408 
	C263.758942,82.398766 262.657135,79.838913 259.124115,77.511810 
	C247.744080,70.016113 242.806717,57.360577 245.757339,44.627773 
	C248.794205,31.522926 258.423553,22.420847 272.207184,20.942009 
	C283.762054,19.702290 295.781006,24.409374 302.824585,37.455700 
	C308.685425,48.311359 306.892914,61.859989 298.436371,71.436958 
	C297.116364,72.931885 295.850128,74.835739 294.139496,75.560875 
	C287.225006,78.491989 287.148376,84.084213 287.204376,90.363022 
	C287.421356,114.693039 287.298553,139.026093 287.302246,163.358002 
	C287.302521,165.157486 287.302246,166.956970 287.302246,168.568588 
	C289.688965,169.563263 291.017151,168.241882 292.390991,167.480423 
	C315.993225,154.398926 339.535217,141.208130 363.190186,128.223038 
	C366.697205,126.297890 368.181427,124.049683 368.168549,119.994301 
	C368.124115,106.001236 368.226440,91.999809 368.714417,78.016975 
	C368.900452,72.687317 367.439453,69.354256 362.844574,66.140289 
	C353.313385,59.473572 348.502777,49.755154 350.123047,38.035976 
	C351.739960,26.340885 358.211670,17.669935 369.512787,13.390897 
	C383.662323,8.033327 400.028839,13.849751 406.859894,26.356297 
	C414.441864,40.237644 410.777527,57.232960 397.660858,66.251602 
	C393.560852,69.070686 392.116516,71.959801 392.216461,76.801743 
	C392.518921,91.461334 392.401184,106.131821 392.268646,120.796455 
	C392.238403,124.138100 393.107727,126.213821 396.265198,127.935799 
	C418.198486,139.897568 440.002075,152.096924 461.875183,164.169601 
	C463.420258,165.022415 464.867706,166.324463 466.883087,166.131104 
	C468.395508,164.805817 467.914490,163.026718 467.917450,161.444168 
	C467.957458,140.112152 467.890045,118.779716 468.005096,97.448235 
	C468.024170,93.909508 466.946625,91.785553 463.767700,89.846977 
	C452.489655,82.969376 447.411560,68.937859 450.948334,55.754730 
	C454.047516,44.202908 465.901459,34.319839 477.349640,33.743076 
	C491.947083,33.007660 503.700500,40.135311 508.334351,52.533226 
	C513.738586,66.992378 508.803131,82.222092 495.703827,90.482201 
	C492.866699,92.271187 492.047180,94.285355 492.057129,97.397568 
	C492.141327,123.729012 492.186859,150.061234 492.034576,176.392014 
	C492.012970,180.125275 493.432556,182.154053 496.527069,183.853165 
	C516.384338,194.756271 536.166382,205.796295 555.995667,216.750427 
	C574.216614,226.816086 592.434875,236.887558 610.731873,246.813477 
	C613.945007,248.556595 615.068054,250.737579 615.022644,254.363525 
	C614.843445,268.693207 615.100647,283.028595 614.899536,297.357666 
	C614.835693,301.906921 615.905762,303.825226 620.979248,303.769226 
	C644.141785,303.513580 667.308838,303.633820 690.474060,303.682953 
	C693.300232,303.688965 695.395752,303.244446 697.109009,300.459259 
	C703.967896,289.308929 714.228699,284.295349 727.150269,285.791290 
	C739.284729,287.196136 747.558960,294.084839 751.966309,305.525513 
	C752.204773,306.144470 752.470276,306.753082 752.861572,307.683258 
	C753.000000,312.689240 753.000000,317.378510 752.826721,322.834900 
	C748.284851,336.189301 739.721008,344.333313 726.422241,345.925903 
	C713.098999,347.521423 703.380737,340.985779 696.716492,329.748718 
	C695.200989,327.193359 693.083069,327.227112 690.735901,327.227448 
	C667.407043,327.231018 644.077698,327.311646 620.749878,327.157654 
	C616.509399,327.129700 614.811462,328.306335 614.872742,332.796173 
	C615.079895,347.956818 615.029541,363.123108 614.872559,378.285156 
	C614.830383,382.356567 616.203796,383.792419 620.372314,383.749359 
	C638.033691,383.566833 655.698059,383.664795 673.361328,383.691315 
	C680.358215,383.701843 685.085876,388.227783 685.194336,394.993286 
	C685.282715,400.508209 679.932739,406.685608 673.306213,406.498871 
	C655.823608,406.006165 638.316589,406.447083 620.821899,406.263885 
	C616.604980,406.219727 614.823425,407.321594 614.896301,411.842010 
	C615.095093,424.168823 615.045410,436.504852 614.786804,448.830780 
	C614.706726,452.648438 616.689148,452.756531 619.441528,452.752106 
	C643.103516,452.714142 666.765747,452.667572 690.427246,452.775238 
	C693.847168,452.790771 695.805054,451.561371 697.608948,448.657349 
	C704.489502,437.580536 716.549561,432.344666 728.874817,434.799988 
	C741.398865,437.294952 748.842407,445.378632 753.000000,457.000000 
	C753.000000,462.022095 753.000000,467.044189 753.000000,472.533142 
M411.524567,350.993011 
	C466.502563,319.674988 521.480591,288.356964 577.525879,256.430939 
	C566.202515,250.022751 556.271179,244.317352 546.260986,238.753952 
	C520.942139,224.682480 495.576782,210.694748 470.250702,196.636383 
	C441.436157,180.641602 412.635345,164.621979 383.855011,148.565826 
	C380.911407,146.923630 378.358856,147.136276 375.437592,148.781876 
	C359.193695,157.932297 342.864838,166.931839 326.570190,175.992310 
	C283.503082,199.939316 240.432114,223.879440 197.382584,247.858032 
	C192.796051,250.412766 188.109863,252.852158 183.519043,256.631012 
	C189.688141,260.239410 195.363724,263.653656 201.125900,266.914948 
	C259.808350,300.127899 318.518585,333.291931 377.154968,366.586029 
	C379.927307,368.160187 381.820160,367.901581 384.387909,366.390808 
	C393.139099,361.241974 402.039307,356.346344 411.524567,350.993011 
M591.637390,307.500092 
	C591.637390,297.413361 591.637390,287.326630 591.637390,276.652740 
	C590.081421,277.273102 589.306396,277.482422 588.630432,277.866211 
	C571.685181,287.486267 554.759521,297.140686 537.811523,306.755890 
	C514.635742,319.904327 491.442871,333.022675 468.260162,346.158966 
	C444.354492,359.704926 420.477112,373.301270 396.518402,386.752777 
	C393.343750,388.535156 392.248169,390.728882 392.253326,394.330627 
	C392.351349,462.823792 392.328552,531.317078 392.363281,599.810364 
	C392.363983,601.205933 391.747803,602.835999 393.548126,604.155884 
	C394.894104,603.445312 396.366119,602.721130 397.788300,601.909729 
	C436.274445,579.952393 474.757050,557.988892 513.236877,536.020508 
	C536.670166,522.642334 560.030884,509.134644 583.577271,495.958740 
	C589.148682,492.841125 591.889160,489.521576 591.845337,482.481750 
	C591.484558,424.489685 591.638428,366.494415 591.637390,307.500092 
M303.364441,568.062988 
	C324.533234,580.197266 345.702057,592.331482 367.111420,604.603577 
	C368.673981,600.944824 368.598206,597.954407 368.597992,594.976562 
	C368.595062,556.664185 368.590759,518.351807 368.586945,480.039429 
	C368.584167,452.052063 368.571564,424.064697 368.590790,396.077332 
	C368.593384,392.287994 368.248779,389.003418 364.311462,386.775757 
	C331.267700,368.080170 298.369843,349.126221 265.298798,330.479370 
	C238.028824,315.103394 210.589813,300.027008 183.207764,284.850189 
	C178.902176,282.463745 174.501495,280.248932 170.027100,277.892792 
	C168.748825,280.774384 169.215408,283.291779 169.214432,285.728851 
	C169.188141,351.711823 169.269760,417.695038 169.071838,483.677399 
	C169.055084,489.255341 170.773087,492.359772 175.611908,495.101166 
	C218.067978,519.154297 260.384979,543.452942 303.364441,568.062988 
M267.987915,699.481323 
	C272.755615,703.163025 276.921753,703.681458 281.191101,701.002014 
	C285.014191,698.602844 286.255829,694.900635 285.602112,690.683228 
	C284.872711,685.977783 281.437500,683.669800 277.121094,682.677979 
	C272.894989,681.706848 269.546173,683.645325 267.234802,686.921753 
	C264.488464,690.814819 264.526642,694.979187 267.987915,699.481323 
M477.379333,74.371521 
	C485.787750,77.000748 492.489288,67.952271 490.181976,61.724068 
	C488.478027,57.124649 484.670746,54.165928 480.032928,54.469757 
	C475.238708,54.783829 471.944611,57.196373 470.624725,61.948162 
	C469.205627,67.057129 471.120209,70.849014 477.379333,74.371521 
M265.390076,50.787598 
	C265.767883,57.573887 269.296204,61.466423 275.250031,61.665340 
	C280.239960,61.832054 284.839691,58.170910 285.677032,53.365959 
	C286.619019,47.960705 283.516510,43.486771 277.696808,41.858234 
	C272.524933,40.410980 267.709167,43.618683 265.390076,50.787598 
M480.650269,702.638184 
	C485.757385,702.463684 489.202789,699.854614 490.449005,695.018616 
	C491.507751,690.910095 490.499847,687.108093 486.807678,684.419128 
	C483.007751,681.651794 479.104034,681.689880 475.178223,684.050781 
	C471.162109,686.465820 470.733612,690.328369 471.118896,694.501526 
	C471.612640,699.849854 475.486115,701.487427 480.650269,702.638184 
M390.608124,42.306976 
	C390.803497,40.586220 390.287720,39.025230 389.489899,37.544521 
	C386.771851,32.499962 380.293823,30.579699 375.352844,33.339104 
	C371.075073,35.728119 369.548645,42.170052 372.132202,46.930950 
	C374.380920,51.074856 380.673401,52.798630 385.222382,50.493122 
	C388.275421,48.945786 389.710144,46.214500 390.608124,42.306976 
M721.879517,325.717194 
	C726.609680,325.993835 730.706604,324.705841 732.305725,319.871826 
	C733.664795,315.763580 733.545166,311.550629 729.533997,308.595520 
	C726.200256,306.139526 722.608215,305.441254 718.794128,307.524536 
	C715.297852,309.434235 713.178650,312.327698 713.421448,316.381378 
	C713.710876,321.214600 716.265991,324.416931 721.879517,325.717194 
M716.524658,471.999939 
	C717.802490,472.766266 718.992249,473.819153 720.375000,474.244110 
	C724.210327,475.422913 727.701782,474.341064 730.507080,471.635223 
	C733.500854,468.747498 733.371094,465.007996 732.344788,461.354584 
	C731.265564,457.513275 728.251953,455.792206 724.522766,455.362183 
	C720.618713,454.912018 717.159363,455.988007 715.007751,459.503906 
	C712.464478,463.659821 712.754089,467.730133 716.524658,471.999939 
M26.496841,323.042725 
	C30.642477,326.342957 35.038235,326.738098 39.297867,323.544556 
	C42.374889,321.237640 43.939236,318.007263 42.959351,313.981903 
	C41.952126,309.844238 39.269188,307.282898 35.180748,306.506287 
	C30.834290,305.680634 27.273930,307.430511 24.889399,311.052277 
	C22.264042,315.039856 23.024956,318.935883 26.496841,323.042725 
M37.122681,473.789978 
	C41.385391,471.645813 43.794693,468.321899 42.946877,463.443604 
	C42.003075,458.013000 36.794243,454.490143 31.624744,455.447510 
	C26.094854,456.471619 22.467377,461.473602 23.501493,466.648804 
	C24.654726,472.420105 29.688652,475.315765 37.122681,473.789978 
z"/>
</svg>